# Blender v2.81 (sub 16) OBJ File: ''
# www.blender.org
mtllib grid.mtl
o Plane
v -1.000000 0.000000 1.000000
v 1.000000 0.000000 1.000000
v -1.000000 0.000000 -1.000000
v 1.000000 0.000000 -1.000000
v -1.000000 0.000000 -0.000202
v 1.000000 0.000000 -0.000202
v 0.000000 0.000000 1.000000
v 0.000000 0.000000 -1.000000
v 0.000000 0.000000 -0.000202
v -1.000000 0.000000 0.499899
v 1.000000 0.000000 0.499899
v 0.000000 0.000000 0.499899
v 0.500000 0.000000 1.000000
v 0.500000 0.000000 -1.000000
v 0.500000 0.000000 -0.000202
v 0.500000 0.000000 0.499899
v 1.000000 0.000000 -0.500101
v -1.000000 0.000000 -0.500101
v 0.000000 0.000000 -0.500101
v 0.500000 0.000000 -0.500101
v -0.500000 0.000000 -1.000000
v -0.500000 0.000000 -0.000202
v -0.500000 0.000000 1.000000
v -0.500000 0.000000 0.499899
v -0.500000 0.000000 -0.500101
vt 0.750000 0.750050
vt 1.000000 0.750050
vt 0.750000 1.000000
vt 0.750000 0.250050
vt 1.000000 0.250050
vt 0.750000 0.500101
vt 0.250000 0.250050
vt 0.500000 0.250050
vt 0.250000 0.500101
vt 0.250000 0.750050
vt 0.500000 0.750050
vt 0.250000 1.000000
vt 0.250000 0.000000
vt 0.500000 0.000000
vt 0.750000 0.002111
vt 0.500000 0.500101
vt 0.500000 1.000000
vt 1.000000 0.500101
vt 0.000000 0.500101
vt 0.000000 0.750050
vt 0.000000 0.000000
vt 0.000000 0.250050
vt 0.000000 1.000000
vt 1.000000 0.000000
vt 1.000000 1.000000
vt 0.752128 0.000000
vt 0.995519 0.000000
vn 0.0000 1.0000 0.0000
usemtl None
s off
f 20/1/1 17/2/1 14/3/1
f 16/4/1 11/5/1 15/6/1
f 24/7/1 12/8/1 22/9/1
f 25/10/1 19/11/1 21/12/1
f 23/13/1 7/14/1 24/7/1
f 7/14/1 13/15/1 12/8/1
f 12/8/1 16/4/1 9/16/1
f 19/11/1 20/1/1 8/17/1
f 9/16/1 15/6/1 19/11/1
f 22/9/1 9/16/1 25/10/1
f 15/6/1 6/18/1 20/1/1
f 5/19/1 22/9/1 18/20/1
f 1/21/1 23/13/1 10/22/1
f 18/20/1 25/10/1 3/23/1
f 10/22/1 24/7/1 5/19/1
f 25/10/1 9/16/1 19/11/1
f 9/16/1 16/4/1 15/6/1
f 3/23/1 25/10/1 21/12/1
f 16/4/1 2/24/1 11/5/1
f 15/6/1 11/5/1 6/18/1
f 19/11/1 15/6/1 20/1/1
f 21/12/1 19/11/1 8/17/1
f 20/1/1 6/18/1 17/2/1
f 8/17/1 20/1/1 14/3/1
f 14/3/1 17/2/1 4/25/1
f 13/26/1 2/27/1 16/4/1
f 18/20/1 22/9/1 25/10/1
f 22/9/1 12/8/1 9/16/1
f 12/8/1 13/15/1 16/4/1
f 24/7/1 7/14/1 12/8/1
f 5/19/1 24/7/1 22/9/1
f 10/22/1 23/13/1 24/7/1
